<svg
  width="24"
  height="24"
  viewBox="0 0 24 24"
  fill="none"
  xmlns="http://www.w3.org/2000/svg"
>
  <path
    d="M8.29951 20.71L0.790006 13.2005C0.403006 12.8135 0.403006 12.1865 0.790006 11.7995L2.79951 9.79001C3.18651 9.40301 3.81351 9.40301 4.20051 9.79001L11.71 17.2995C12.097 17.6865 12.097 18.3135 11.71 18.7005L9.70051 20.71C9.31351 21.0965 8.68651 21.0965 8.29951 20.71Z"
    fill="url(#paint0_linear_14_430)"
  />
  <path
    d="M6.29 17.2995L19.7995 3.79001C20.1865 3.40301 20.8135 3.40301 21.2005 3.79001L23.21 5.79951C23.597 6.18651 23.597 6.81351 23.21 7.20051L9.7005 20.71C9.3135 21.097 8.6865 21.097 8.2995 20.71L6.29 18.7005C5.9035 18.3135 5.9035 17.6865 6.29 17.2995Z"
    fill="url(#paint1_linear_14_430)"
  />
  <defs>
    <linearGradient
      id="paint0_linear_14_430"
      x1="10.6205"
      y1="19.6205"
      x2="1.77051"
      y2="10.7705"
      gradientUnits="userSpaceOnUse"
    >
      <stop offset="0.108" stop-color="#FFA029" />
      <stop offset="0.433" stop-color="#FFC778" />
    </linearGradient>
    <linearGradient
      id="paint1_linear_14_430"
      x1="22.2051"
      y1="4.79495"
      x2="7.295"
      y2="19.7056"
      gradientUnits="userSpaceOnUse"
    >
      <stop stop-color="#FFC778" />
      <stop offset="1" stop-color="#FFA029" />
    </linearGradient>
  </defs>
</svg>
