<svg
  width="18"
  height="18"
  viewBox="0 0 18 18"
  fill="none"
  xmlns="http://www.w3.org/2000/svg"
>
  <path
    d="M7.22188 0.200012C3.4625 0.200012 0.421875 3.24064 0.421875 7.00001C0.421875 10.7594 3.4625 13.8 7.22188 13.8C8.56406 13.8 9.80625 13.4063 10.8594 12.7375L15.7719 17.65L17.4719 15.95L12.6219 11.1125C13.4938 9.96876 14.0219 8.55157 14.0219 7.00001C14.0219 3.24064 10.9813 0.200012 7.22188 0.200012ZM7.22188 1.80001C10.1016 1.80001 12.4219 4.12032 12.4219 7.00001C12.4219 9.8797 10.1016 12.2 7.22188 12.2C4.34219 12.2 2.02188 9.8797 2.02188 7.00001C2.02188 4.12032 4.34219 1.80001 7.22188 1.80001Z"
    fill="white"
  />
</svg>
